<svg xmlns="http://www.w3.org/2000/svg" width="24" height="25" viewBox="0 0 24 25">
    <g fill="none" fill-rule="evenodd" stroke="#979797">
        <path stroke-width="1.2" d="M22.164 8.35L8.141 22.383a4.203 4.203 0 0 1-5.947 0 4.21 4.21 0 0 1 0-5.953L16.217 2.398a4.203 4.203 0 0 1 5.947 0 4.21 4.21 0 0 1 0 5.952z"/>
        <path stroke-width="1.26" d="M9.205 9.414l5.841 5.846"/>
        <path stroke-width="1.1" d="M16.85 7.266l-3.36 3.361-1.384-1.385 4.07-4.071 1.215-1.225s1.82-1.712 3.348-.182c0 0-1.259.915-2.71 2.372l-1.18 1.13z"/>
    </g>
</svg>
